<svg width="1440" height="155" viewBox="0 0 1440 155" fill="none" xmlns="http://www.w3.org/2000/svg">
<g clip-path="url(#clip0_211_33)">
<rect width="1440" height="155" fill="#2C0173"/>
<path d="M356.157 101V90.2627H359.856C360.691 90.2627 361.328 90.314 361.768 90.4165C362.383 90.5581 362.908 90.8145 363.342 91.1855C363.909 91.6641 364.331 92.2769 364.609 93.0239C364.893 93.7661 365.034 94.6157 365.034 95.5728C365.034 96.3882 364.939 97.1108 364.749 97.7407C364.558 98.3706 364.314 98.8931 364.016 99.3081C363.718 99.7183 363.391 100.043 363.035 100.282C362.683 100.517 362.256 100.695 361.753 100.817C361.255 100.939 360.681 101 360.032 101H356.157ZM357.578 99.7329H359.871C360.579 99.7329 361.133 99.667 361.533 99.5352C361.938 99.4033 362.261 99.2178 362.5 98.9785C362.837 98.6416 363.098 98.1899 363.284 97.6235C363.474 97.0522 363.569 96.3613 363.569 95.5508C363.569 94.4277 363.384 93.5659 363.013 92.9653C362.646 92.3599 362.2 91.9546 361.672 91.7495C361.292 91.603 360.679 91.5298 359.834 91.5298H357.578V99.7329ZM372.153 98.4951L373.516 98.6636C373.301 99.4595 372.903 100.077 372.322 100.517C371.741 100.956 370.999 101.176 370.095 101.176C368.958 101.176 368.054 100.827 367.385 100.128C366.721 99.4253 366.389 98.4414 366.389 97.1768C366.389 95.8682 366.726 94.8525 367.4 94.1299C368.074 93.4072 368.948 93.0459 370.022 93.0459C371.062 93.0459 371.912 93.3999 372.571 94.1079C373.23 94.8159 373.56 95.812 373.56 97.0962C373.56 97.1743 373.557 97.2915 373.552 97.4478H367.751C367.8 98.3022 368.042 98.9565 368.477 99.4106C368.911 99.8647 369.453 100.092 370.103 100.092C370.586 100.092 370.999 99.9648 371.34 99.7109C371.682 99.457 371.953 99.0518 372.153 98.4951ZM367.825 96.3638H372.168C372.109 95.7095 371.943 95.2188 371.67 94.8916C371.25 94.3838 370.706 94.1299 370.037 94.1299C369.431 94.1299 368.921 94.3325 368.506 94.7378C368.096 95.1431 367.869 95.6851 367.825 96.3638ZM377.339 101L374.38 93.2217H375.771L377.441 97.8799C377.622 98.3828 377.788 98.9053 377.939 99.4473C378.057 99.0371 378.22 98.5439 378.43 97.9678L380.159 93.2217H381.514L378.569 101H377.339ZM388.003 98.4951L389.365 98.6636C389.15 99.4595 388.752 100.077 388.171 100.517C387.59 100.956 386.848 101.176 385.945 101.176C384.807 101.176 383.904 100.827 383.235 100.128C382.571 99.4253 382.239 98.4414 382.239 97.1768C382.239 95.8682 382.576 94.8525 383.25 94.1299C383.923 93.4072 384.797 93.0459 385.872 93.0459C386.912 93.0459 387.761 93.3999 388.42 94.1079C389.08 94.8159 389.409 95.812 389.409 97.0962C389.409 97.1743 389.407 97.2915 389.402 97.4478H383.601C383.65 98.3022 383.892 98.9565 384.326 99.4106C384.761 99.8647 385.303 100.092 385.952 100.092C386.436 100.092 386.848 99.9648 387.19 99.7109C387.532 99.457 387.803 99.0518 388.003 98.4951ZM383.674 96.3638H388.018C387.959 95.7095 387.793 95.2188 387.52 94.8916C387.1 94.3838 386.555 94.1299 385.886 94.1299C385.281 94.1299 384.771 94.3325 384.355 94.7378C383.945 95.1431 383.718 95.6851 383.674 96.3638ZM390.999 101V90.2627H392.317V101H390.999ZM393.877 97.1108C393.877 95.6704 394.277 94.6035 395.078 93.9102C395.747 93.334 396.562 93.0459 397.524 93.0459C398.594 93.0459 399.468 93.3975 400.146 94.1006C400.825 94.7988 401.165 95.7656 401.165 97.001C401.165 98.002 401.013 98.7905 400.71 99.3667C400.413 99.938 399.976 100.382 399.399 100.7C398.828 101.017 398.203 101.176 397.524 101.176C396.436 101.176 395.554 100.827 394.88 100.128C394.211 99.4302 393.877 98.4243 393.877 97.1108ZM395.232 97.1108C395.232 98.1069 395.449 98.854 395.884 99.3521C396.318 99.8452 396.865 100.092 397.524 100.092C398.179 100.092 398.723 99.8428 399.158 99.3447C399.592 98.8467 399.81 98.0874 399.81 97.0669C399.81 96.105 399.59 95.3774 399.15 94.8843C398.716 94.3862 398.174 94.1372 397.524 94.1372C396.865 94.1372 396.318 94.3838 395.884 94.877C395.449 95.3701 395.232 96.1147 395.232 97.1108ZM402.717 103.981V93.2217H403.918V94.2324C404.202 93.8369 404.521 93.5415 404.878 93.3462C405.234 93.146 405.667 93.0459 406.174 93.0459C406.838 93.0459 407.424 93.2168 407.932 93.5586C408.44 93.9004 408.823 94.3838 409.082 95.0088C409.341 95.6289 409.47 96.3101 409.47 97.0522C409.47 97.8481 409.326 98.5659 409.038 99.2056C408.755 99.8403 408.34 100.329 407.793 100.67C407.251 101.007 406.68 101.176 406.079 101.176C405.64 101.176 405.244 101.083 404.893 100.897C404.546 100.712 404.26 100.478 404.036 100.194V103.981H402.717ZM403.911 97.1548C403.911 98.1558 404.114 98.8955 404.519 99.374C404.924 99.8525 405.415 100.092 405.991 100.092C406.577 100.092 407.078 99.8452 407.493 99.3521C407.913 98.854 408.123 98.085 408.123 97.0449C408.123 96.0537 407.917 95.3115 407.507 94.8184C407.102 94.3252 406.616 94.0786 406.05 94.0786C405.488 94.0786 404.99 94.3423 404.556 94.8696C404.126 95.3921 403.911 96.1538 403.911 97.1548ZM416.392 98.4951L417.754 98.6636C417.539 99.4595 417.141 100.077 416.56 100.517C415.979 100.956 415.237 101.176 414.333 101.176C413.196 101.176 412.292 100.827 411.624 100.128C410.959 99.4253 410.627 98.4414 410.627 97.1768C410.627 95.8682 410.964 94.8525 411.638 94.1299C412.312 93.4072 413.186 93.0459 414.26 93.0459C415.3 93.0459 416.15 93.3999 416.809 94.1079C417.468 94.8159 417.798 95.812 417.798 97.0962C417.798 97.1743 417.795 97.2915 417.791 97.4478H411.99C412.039 98.3022 412.28 98.9565 412.715 99.4106C413.149 99.8647 413.691 100.092 414.341 100.092C414.824 100.092 415.237 99.9648 415.579 99.7109C415.92 99.457 416.191 99.0518 416.392 98.4951ZM412.063 96.3638H416.406C416.348 95.7095 416.182 95.2188 415.908 94.8916C415.488 94.3838 414.944 94.1299 414.275 94.1299C413.669 94.1299 413.159 94.3325 412.744 94.7378C412.334 95.1431 412.107 95.6851 412.063 96.3638ZM419.402 101V93.2217H420.588V94.4009C420.891 93.8491 421.169 93.4854 421.423 93.3096C421.682 93.1338 421.965 93.0459 422.273 93.0459C422.717 93.0459 423.169 93.1875 423.628 93.4707L423.174 94.6938C422.852 94.5034 422.529 94.4082 422.207 94.4082C421.919 94.4082 421.66 94.4961 421.431 94.6719C421.201 94.8428 421.038 95.082 420.94 95.3896C420.793 95.8584 420.72 96.3711 420.72 96.9277V101H419.402Z" fill="white"/>
<circle cx="344.5" cy="95.5" r="5.5" fill="#9B0000"/>
<rect x="99" y="65" width="44" height="91" fill="#9B0000"/>
<path d="M141.82 101H135.328L125.25 91.3906H110.531V86.6562H129.82C130.82 86.6562 131.758 86.4688 132.633 86.0938C133.508 85.7031 134.266 85.1797 134.906 84.5234C135.562 83.8672 136.078 83.1016 136.453 82.2266C136.828 81.3359 137.016 80.3906 137.016 79.3906C137.016 78.3906 136.828 77.4531 136.453 76.5781C136.078 75.7031 135.562 74.9453 134.906 74.3047C134.266 73.6484 133.508 73.1328 132.633 72.7578C131.758 72.3828 130.82 72.1953 129.82 72.1953H107.836V101H103.031V67.3906H129.82C131.477 67.3906 133.031 67.7109 134.484 68.3516C135.938 68.9766 137.203 69.8359 138.281 70.9297C139.375 72.0078 140.234 73.2734 140.859 74.7266C141.5 76.1797 141.82 77.7344 141.82 79.3906C141.82 80.8906 141.562 82.3125 141.047 83.6562C140.531 84.9844 139.82 86.1797 138.914 87.2422C138.008 88.2891 136.938 89.1641 135.703 89.8672C134.484 90.5547 133.164 91.0156 131.742 91.25L141.82 101ZM186.188 101H181.383V91.3906H154.57V86.6094H181.383V72.1953H164.156C162.516 72.1953 160.969 72.5156 159.516 73.1562C158.062 73.7812 156.797 74.6406 155.719 75.7344C154.641 76.8125 153.781 78.0781 153.141 79.5312C152.516 80.9844 152.203 82.5391 152.203 84.1953V101H147.398V84.1953C147.398 82.6484 147.594 81.1641 147.984 79.7422C148.391 78.3047 148.953 76.9688 149.672 75.7344C150.406 74.4844 151.281 73.3516 152.297 72.3359C153.328 71.3047 154.461 70.4219 155.695 69.6875C156.945 68.9531 158.281 68.3906 159.703 68C161.125 67.5938 162.609 67.3906 164.156 67.3906H186.188V101ZM237.539 88.9062C237.539 90.5781 237.219 92.1484 236.578 93.6172C235.953 95.0859 235.094 96.3672 234 97.4609C232.906 98.5547 231.625 99.4219 230.156 100.062C228.688 100.688 227.117 101 225.445 101C224.445 101 223.477 100.891 222.539 100.672C221.617 100.438 220.742 100.117 219.914 99.7109C219.086 99.2891 218.312 98.7812 217.594 98.1875C216.891 97.5938 216.258 96.9297 215.695 96.1953C214.586 97.6641 213.195 98.8359 211.523 99.7109C209.852 100.57 208.016 101 206.016 101C204.344 101 202.773 100.688 201.305 100.062C199.836 99.4219 198.555 98.5547 197.461 97.4609C196.367 96.3672 195.5 95.0859 194.859 93.6172C194.234 92.1484 193.922 90.5781 193.922 88.9062V67.3906H198.703V88.9062C198.703 89.9219 198.891 90.875 199.266 91.7656C199.656 92.6406 200.18 93.4062 200.836 94.0625C201.508 94.7188 202.281 95.2422 203.156 95.6328C204.047 96.0078 205 96.1953 206.016 96.1953C207 96.1953 207.922 96.0156 208.781 95.6562C209.656 95.2969 210.414 94.8047 211.055 94.1797C211.711 93.5547 212.234 92.8203 212.625 91.9766C213.031 91.1172 213.258 90.2031 213.305 89.2344V88.9062V67.3906H218.156V88.9062C218.156 89.9219 218.344 90.875 218.719 91.7656C219.109 92.6406 219.633 93.4062 220.289 94.0625C220.945 94.7188 221.711 95.2422 222.586 95.6328C223.477 96.0078 224.43 96.1953 225.445 96.1953C226.445 96.1953 227.391 96.0078 228.281 95.6328C229.172 95.2422 229.945 94.7188 230.602 94.0625C231.273 93.4062 231.797 92.6406 232.172 91.7656C232.562 90.875 232.758 89.9219 232.758 88.9062V67.3906H237.539V88.9062ZM283.5 101H278.695V91.3906H251.883V86.6094H278.695V72.1953H261.469C259.828 72.1953 258.281 72.5156 256.828 73.1562C255.375 73.7812 254.109 74.6406 253.031 75.7344C251.953 76.8125 251.094 78.0781 250.453 79.5312C249.828 80.9844 249.516 82.5391 249.516 84.1953V101H244.711V84.1953C244.711 82.6484 244.906 81.1641 245.297 79.7422C245.703 78.3047 246.266 76.9688 246.984 75.7344C247.719 74.4844 248.594 73.3516 249.609 72.3359C250.641 71.3047 251.773 70.4219 253.008 69.6875C254.258 68.9531 255.594 68.3906 257.016 68C258.438 67.5938 259.922 67.3906 261.469 67.3906H283.5V101ZM296.367 101H291.562V67.3906H293.953C295.516 67.3906 297.172 67.5938 298.922 68C300.688 68.4062 302.484 68.9922 304.312 69.7578C306.141 70.5234 307.961 71.4531 309.773 72.5469C311.602 73.625 313.367 74.8516 315.07 76.2266C316.773 77.6016 318.375 79.1016 319.875 80.7266C321.375 82.3359 322.719 84.0547 323.906 85.8828V67.3906H328.711V101H323.906C323.906 98.5312 323.477 96.1562 322.617 93.875C321.758 91.5781 320.609 89.4141 319.172 87.3828C317.734 85.3516 316.078 83.4844 314.203 81.7812C312.328 80.0625 310.367 78.5547 308.32 77.2578C306.289 75.9609 304.242 74.8984 302.18 74.0703C300.117 73.2266 298.18 72.6641 296.367 72.3828V101Z" fill="white"/>
<line x1="721.5" y1="26" x2="721.5" y2="129" stroke="#FF0000" stroke-width="3"/>
</g>
<defs>
<clipPath id="clip0_211_33">
<rect width="1440" height="155" fill="white"/>
</clipPath>
</defs>
</svg>
