<svg width="87" height="23" viewBox="0 0 87 23" fill="none" xmlns="http://www.w3.org/2000/svg">
<path d="M0.113636 18V0.545454H10.6477V2.42045H2.22727V8.31818H10.1023V10.1932H2.22727V16.125H10.7841V18H0.113636ZM15.6847 4.90909L18.821 10.2614L21.9574 4.90909H24.2756L20.0483 11.4545L24.2756 18H21.9574L18.821 12.9205L15.6847 18H13.3665L17.5256 11.4545L13.3665 4.90909H15.6847ZM27.1456 22.9091V4.90909H29.0888V6.98864H29.3274C29.4751 6.76136 29.6797 6.47159 29.9411 6.11932C30.2081 5.76136 30.5888 5.44318 31.0831 5.16477C31.5831 4.88068 32.2592 4.73864 33.1115 4.73864C34.2138 4.73864 35.1854 5.0142 36.0263 5.56534C36.8672 6.11648 37.5234 6.89773 37.995 7.90909C38.4666 8.92045 38.7024 10.1136 38.7024 11.4886C38.7024 12.875 38.4666 14.0767 37.995 15.0938C37.5234 16.1051 36.87 16.8892 36.0348 17.446C35.1996 17.9972 34.2365 18.2727 33.1456 18.2727C32.3047 18.2727 31.6314 18.1335 31.1257 17.8551C30.62 17.571 30.2308 17.25 29.9581 16.892C29.6854 16.5284 29.4751 16.2273 29.3274 15.9886H29.157V22.9091H27.1456ZM29.1229 11.4545C29.1229 12.4432 29.2678 13.3153 29.5575 14.071C29.8473 14.821 30.2706 15.4091 30.8274 15.8352C31.3842 16.2557 32.0661 16.4659 32.8729 16.4659C33.7138 16.4659 34.4155 16.2443 34.978 15.8011C35.5462 15.3523 35.9723 14.75 36.2564 13.9943C36.5462 13.233 36.6911 12.3864 36.6911 11.4545C36.6911 10.5341 36.549 9.70455 36.2649 8.96591C35.9865 8.22159 35.5632 7.63352 34.995 7.2017C34.4325 6.7642 33.7251 6.54545 32.8729 6.54545C32.0547 6.54545 31.3672 6.75284 30.8104 7.16761C30.2536 7.5767 29.8331 8.15057 29.549 8.8892C29.2649 9.62216 29.1229 10.4773 29.1229 11.4545ZM41.7706 18V4.90909H43.7138V6.88636H43.8501C44.0888 6.23864 44.5206 5.71307 45.1456 5.30966C45.7706 4.90625 46.4751 4.70454 47.2592 4.70454C47.407 4.70454 47.5916 4.70739 47.8132 4.71307C48.0348 4.71875 48.2024 4.72727 48.3161 4.73864V6.78409C48.2479 6.76705 48.0916 6.74148 47.8473 6.70739C47.6087 6.66761 47.3558 6.64773 47.0888 6.64773C46.4524 6.64773 45.8842 6.78125 45.3842 7.0483C44.8899 7.30966 44.4979 7.6733 44.2081 8.1392C43.924 8.59943 43.782 9.125 43.782 9.71591V18H41.7706ZM55.7905 18.2727C54.5291 18.2727 53.4411 17.9943 52.5263 17.4375C51.6172 16.875 50.9155 16.0909 50.4212 15.0852C49.9325 14.0739 49.6882 12.8977 49.6882 11.5568C49.6882 10.2159 49.9325 9.03409 50.4212 8.01136C50.9155 6.98295 51.603 6.18182 52.4837 5.60795C53.37 5.02841 54.4041 4.73864 55.5859 4.73864C56.2678 4.73864 56.9411 4.85227 57.6058 5.07954C58.2706 5.30682 58.8757 5.67614 59.4212 6.1875C59.9666 6.69318 60.4013 7.36364 60.7251 8.19886C61.049 9.03409 61.2109 10.0625 61.2109 11.2841V12.1364H51.12V10.3977H59.1655C59.1655 9.65909 59.0178 9 58.7223 8.42045C58.4325 7.84091 58.0178 7.38352 57.478 7.0483C56.9439 6.71307 56.3132 6.54545 55.5859 6.54545C54.7848 6.54545 54.0916 6.74432 53.5064 7.14205C52.9268 7.53409 52.4808 8.04545 52.1683 8.67614C51.8558 9.30682 51.6996 9.98295 51.6996 10.7045V11.8636C51.6996 12.8523 51.87 13.6903 52.2109 14.3778C52.5575 15.0597 53.0376 15.5795 53.6513 15.9375C54.2649 16.2898 54.978 16.4659 55.7905 16.4659C56.3189 16.4659 56.7962 16.392 57.2223 16.2443C57.6541 16.0909 58.0263 15.8636 58.3388 15.5625C58.6513 15.2557 58.8928 14.875 59.0632 14.4205L61.0064 14.9659C60.8018 15.625 60.4581 16.2045 59.9751 16.7045C59.4922 17.1989 58.8956 17.5852 58.1854 17.8636C57.4751 18.1364 56.6768 18.2727 55.7905 18.2727ZM73.5433 7.84091L71.7365 8.35227C71.6229 8.05114 71.4553 7.75852 71.2337 7.47443C71.0178 7.18466 70.7223 6.94602 70.3473 6.75852C69.9723 6.57102 69.4922 6.47727 68.907 6.47727C68.1058 6.47727 67.4382 6.66193 66.9041 7.03125C66.3757 7.39489 66.1115 7.85795 66.1115 8.42045C66.1115 8.92045 66.2933 9.31534 66.657 9.60511C67.0206 9.89489 67.5888 10.1364 68.3615 10.3295L70.3047 10.8068C71.4751 11.0909 72.3473 11.5256 72.9212 12.1108C73.495 12.6903 73.782 13.4375 73.782 14.3523C73.782 15.1023 73.5661 15.7727 73.1342 16.3636C72.7081 16.9545 72.1115 17.4205 71.3445 17.7614C70.5774 18.1023 69.6854 18.2727 68.6683 18.2727C67.3331 18.2727 66.228 17.983 65.353 17.4034C64.478 16.8239 63.924 15.9773 63.6911 14.8636L65.6001 14.3864C65.782 15.0909 66.1257 15.6193 66.6314 15.9716C67.1428 16.3239 67.8104 16.5 68.6342 16.5C69.5717 16.5 70.3161 16.3011 70.8672 15.9034C71.424 15.5 71.7024 15.017 71.7024 14.4545C71.7024 14 71.5433 13.6193 71.2251 13.3125C70.907 13 70.4183 12.767 69.7592 12.6136L67.5774 12.1023C66.3786 11.8182 65.4979 11.3778 64.9354 10.7812C64.3786 10.179 64.1001 9.42614 64.1001 8.52273C64.1001 7.78409 64.3075 7.13068 64.7223 6.5625C65.1428 5.99432 65.7138 5.5483 66.4354 5.22443C67.1626 4.90057 67.9865 4.73864 68.907 4.73864C70.2024 4.73864 71.2195 5.02273 71.9581 5.59091C72.7024 6.15909 73.2308 6.90909 73.5433 7.84091ZM86.0824 7.84091L84.2756 8.35227C84.1619 8.05114 83.9943 7.75852 83.7727 7.47443C83.5568 7.18466 83.2614 6.94602 82.8864 6.75852C82.5114 6.57102 82.0312 6.47727 81.446 6.47727C80.6449 6.47727 79.9773 6.66193 79.4432 7.03125C78.9148 7.39489 78.6506 7.85795 78.6506 8.42045C78.6506 8.92045 78.8324 9.31534 79.196 9.60511C79.5597 9.89489 80.1278 10.1364 80.9006 10.3295L82.8438 10.8068C84.0142 11.0909 84.8864 11.5256 85.4602 12.1108C86.0341 12.6903 86.321 13.4375 86.321 14.3523C86.321 15.1023 86.1051 15.7727 85.6733 16.3636C85.2472 16.9545 84.6506 17.4205 83.8835 17.7614C83.1165 18.1023 82.2244 18.2727 81.2074 18.2727C79.8722 18.2727 78.767 17.983 77.892 17.4034C77.017 16.8239 76.4631 15.9773 76.2301 14.8636L78.1392 14.3864C78.321 15.0909 78.6648 15.6193 79.1705 15.9716C79.6818 16.3239 80.3494 16.5 81.1733 16.5C82.1108 16.5 82.8551 16.3011 83.4062 15.9034C83.9631 15.5 84.2415 15.017 84.2415 14.4545C84.2415 14 84.0824 13.6193 83.7642 13.3125C83.446 13 82.9574 12.767 82.2983 12.6136L80.1165 12.1023C78.9176 11.8182 78.0369 11.3778 77.4744 10.7812C76.9176 10.179 76.6392 9.42614 76.6392 8.52273C76.6392 7.78409 76.8466 7.13068 77.2614 6.5625C77.6818 5.99432 78.2528 5.5483 78.9744 5.22443C79.7017 4.90057 80.5256 4.73864 81.446 4.73864C82.7415 4.73864 83.7585 5.02273 84.4972 5.59091C85.2415 6.15909 85.7699 6.90909 86.0824 7.84091Z" fill="#FF8132"/>
</svg>
