<svg width="264" height="406" viewBox="0 0 264 406" fill="none" xmlns="http://www.w3.org/2000/svg">
<path fill-rule="evenodd" clip-rule="evenodd" d="M0.0106608 202.667C0.0106608 186.638 6.37814 171.265 17.7123 159.931C29.0465 148.597 44.419 142.229 60.448 142.229H120.907V263.104H60.448C44.419 263.104 29.0465 256.737 17.7123 245.402C6.37814 234.068 0.0106608 218.696 0.0106608 202.667ZM60.448 120.896H120.907V0H60.448C44.4162 2.38893e-07 29.041 6.36861 17.7048 17.7048C6.3686 29.041 0 44.4162 0 60.448C0 76.4798 6.3686 91.855 17.7048 103.191C29.041 114.527 44.4162 120.896 60.448 120.896ZM263.115 60.4373C263.117 68.3759 261.556 76.2372 258.52 83.5723C255.484 90.9073 251.033 97.5724 245.421 103.187C239.808 108.801 233.145 113.255 225.811 116.293C218.477 119.332 210.616 120.896 202.677 120.896H142.24V0H202.677C218.706 0 234.079 6.36749 245.413 17.7017C256.747 29.0359 263.115 44.4084 263.115 60.4373ZM142.24 202.667C142.24 186.638 148.607 171.265 159.942 159.931C171.276 148.597 186.648 142.229 202.677 142.229C218.706 142.229 234.079 148.597 245.413 159.931C256.747 171.265 263.115 186.638 263.115 202.667C263.115 218.696 256.747 234.068 245.413 245.402C234.079 256.737 218.706 263.104 202.677 263.104C186.648 263.104 171.276 256.737 159.942 245.402C148.607 234.068 142.24 218.696 142.24 202.667ZM60.448 284.437H120.907V344.896C120.902 356.848 117.355 368.53 110.712 378.465C104.07 388.401 94.6305 396.144 83.5879 400.716C72.5453 405.287 60.3951 406.482 48.6734 404.15C36.9517 401.817 26.1847 396.061 17.7337 387.61C9.28266 379.159 3.52699 368.392 1.19433 356.671C-1.13834 344.949 0.0567242 332.799 4.62844 321.756C9.20015 310.714 16.9432 301.274 26.8788 294.632C36.8144 287.989 48.4964 284.442 60.448 284.437Z" fill="#FF934F"/>
</svg>
