<svg width="891" height="782" viewBox="0 0 891 782" fill="none" xmlns="http://www.w3.org/2000/svg">
<rect x="302" y="313" width="547" height="469" fill="#FAFBFF"/>
<path d="M315.609 763H424.594L549.594 643.859H711.703V564.562H490.219C479.021 564.562 468.474 562.349 458.578 557.922C448.682 553.495 440.089 547.635 432.797 540.344C425.505 532.792 419.776 524.068 415.609 514.172C411.443 504.276 409.359 493.859 409.359 482.922C409.359 471.724 411.443 461.307 415.609 451.672C419.776 441.776 425.505 433.182 432.797 425.891C440.089 418.599 448.682 412.87 458.578 408.703C468.474 404.276 479.021 402.062 490.219 402.062H753.5V763H833.578V323.156H490.219C468.083 323.156 447.25 327.453 427.719 336.047C408.188 344.38 391.26 355.839 376.938 370.422C362.354 384.745 350.896 401.672 342.562 421.203C334.229 440.474 330.062 461.047 330.062 482.922C330.062 500.891 332.927 518.208 338.656 534.875C344.385 551.281 352.458 566.385 362.875 580.188C373.031 593.729 385.141 605.448 399.203 615.344C413.266 625.24 428.63 632.531 445.297 637.219L315.609 763Z" fill="#9B0000"/>
</svg>
