<svg width="482" height="419" viewBox="0 0 482 419" fill="none" xmlns="http://www.w3.org/2000/svg">
<path d="M241.769 189.651L210.696 181.436C209.114 176.241 206.946 171.121 204.424 166.287L220.649 138.601C221.157 137.726 221.361 136.707 221.231 135.704C221.1 134.701 220.642 133.768 219.927 133.052L198.731 111.849C198.018 111.107 197.076 110.625 196.057 110.481C195.037 110.336 193.999 110.537 193.107 111.051L165.346 127.277L162.748 125.982C160.289 124.753 157.76 123.669 155.174 122.737C153.517 122.082 151.936 121.585 150.272 120.93L142.125 89.9238C141.853 88.9474 141.268 88.0871 140.461 87.4751C139.653 86.863 138.666 86.533 137.653 86.5355H107.588C106.572 86.5227 105.58 86.8489 104.77 87.4625C103.96 88.0761 103.378 88.9422 103.115 89.9238L102.965 90.3605L102.106 93.7487L100.804 98.944L94.9685 120.93C89.6979 122.662 84.6532 124.755 79.8193 127.277L52.1336 111.051C51.2417 110.537 50.2032 110.336 49.1838 110.481C48.1644 110.625 47.2227 111.107 46.5092 111.849L32.8809 125.478L28.0471 130.304L25.3064 133.052C24.5926 133.769 24.1356 134.702 24.0062 135.705C23.8769 136.709 24.0825 137.727 24.5911 138.601L39.2282 163.765L39.3035 163.915L40.7341 166.287C40.5986 166.581 40.448 166.792 40.3802 167.085C38.0029 171.706 36.0474 176.532 34.5374 181.504L3.46353 189.651C2.47671 189.894 1.59972 190.461 0.972098 191.261C0.34448 192.06 0.00229731 193.047 0 194.063V224.053C0 226.289 1.43812 228.021 3.46353 228.525L34.5374 236.747C36.1186 241.943 38.2193 247.063 40.8094 251.814L24.5911 279.582C24.0799 280.456 23.8729 281.475 24.0023 282.479C24.1317 283.483 24.5903 284.416 25.3064 285.131L46.5092 306.402C48.0226 307.848 50.3341 308.209 52.1336 307.125L79.8193 290.899C80.6852 291.328 81.5511 291.832 82.4169 292.201C84.9393 293.421 87.4617 294.505 90.0593 295.514C91.648 296.094 93.3045 296.666 94.9685 297.171L103.115 328.32C103.62 330.345 105.495 331.708 107.588 331.708H137.653C138.666 331.711 139.653 331.381 140.461 330.769C141.268 330.157 141.853 329.296 142.125 328.32L150.272 297.171C155.535 295.514 160.587 293.421 165.346 290.899L165.421 290.974L169.306 293.278L171.686 294.648L186.616 303.307L193.107 307.125C193.627 307.415 194.184 307.633 194.763 307.772C195.422 307.838 196.087 307.769 196.718 307.572C197.35 307.374 197.934 307.05 198.438 306.62C198.588 306.545 198.656 306.47 198.731 306.394L217.186 287.872L219.927 285.131C220.644 284.417 221.104 283.484 221.235 282.48C221.365 281.476 221.16 280.457 220.649 279.582L205.937 254.487L204.431 251.814C204.567 251.528 204.71 251.317 204.785 251.023C207.164 246.475 209.182 241.649 210.696 236.747L241.777 228.525C242.778 228.287 243.667 227.713 244.297 226.899C244.927 226.086 245.26 225.081 245.24 224.053V194.063C245.236 193.048 244.894 192.063 244.266 191.265C243.639 190.467 242.763 189.902 241.777 189.658L241.769 189.651Z" fill="#70C1F9"/>
<path d="M122.579 265.638C153.817 265.638 179.14 240.314 179.14 209.077C179.14 177.839 153.817 152.516 122.579 152.516C91.341 152.516 66.0178 177.839 66.0178 209.077C66.0178 240.314 91.341 265.638 122.579 265.638Z" fill="#4F5D99"/>
<path d="M122.579 253.448C147.084 253.448 166.95 233.582 166.95 209.077C166.95 184.571 147.084 164.706 122.579 164.706C98.0735 164.706 78.208 184.571 78.208 209.077C78.208 233.582 98.0735 253.448 122.579 253.448Z" fill="white"/>
<path d="M404.593 33.3176V384.934C404.597 389.31 403.738 393.644 402.065 397.687C400.392 401.731 397.938 405.405 394.843 408.499C391.748 411.593 388.074 414.046 384.03 415.718C379.985 417.391 375.651 418.249 371.275 418.244H155.934C151.558 418.249 147.224 417.391 143.18 415.718C139.136 414.046 135.461 411.593 132.367 408.499C129.272 405.405 126.818 401.731 125.145 397.687C123.472 393.644 122.613 389.31 122.616 384.934V33.3101C122.62 24.4756 126.132 16.0043 132.38 9.75806C138.627 3.51185 147.1 0.00199514 155.934 0H371.275C380.11 0.00199514 388.582 3.51185 394.83 9.75806C401.077 16.0043 404.589 24.4756 404.593 33.3101V33.3176Z" fill="#003481"/>
<path d="M381.274 39.9586V378.263C381.274 383.887 378.466 388.849 374.159 391.861C374.024 391.921 373.896 392.057 373.76 392.117C371.075 393.979 367.879 394.963 364.612 394.933H162.56C158.144 394.915 153.915 393.153 150.792 390.03C147.67 386.908 145.908 382.678 145.89 378.263V39.9586C145.89 30.8104 153.412 23.296 162.56 23.296H243.2C246.069 23.296 248.425 25.6452 248.425 28.5214C248.425 34.4697 251.625 40.2146 256.723 42.8273C256.986 42.9628 257.182 43.0908 257.446 43.1586C258.357 43.6104 259.275 43.9417 260.254 44.1374C262.445 44.6544 264.727 44.6544 266.918 44.1374C274.04 42.6993 278.746 35.7798 278.746 28.5214C278.746 27.4673 279.07 26.4885 279.665 25.6452V25.5774C279.793 25.3817 279.921 25.2537 280.117 25.0504C280.602 24.5058 281.195 24.0685 281.859 23.7664C282.523 23.4643 283.243 23.3041 283.972 23.296H364.612C373.76 23.296 381.274 30.8104 381.274 39.9586Z" fill="#E9E9FF"/>
<path d="M271.511 299.121V305.378C271.515 305.757 271.443 306.132 271.3 306.483C271.157 306.834 270.945 307.153 270.677 307.421C270.409 307.689 270.091 307.9 269.74 308.043C269.389 308.186 269.013 308.258 268.634 308.254H180.992C180.23 308.252 179.499 307.948 178.96 307.409C178.421 306.87 178.118 306.14 178.116 305.378V299.121C178.116 297.562 179.441 296.245 180.992 296.245H268.634C270.246 296.245 271.511 297.562 271.511 299.121ZM349.094 299.121V305.378C349.098 305.757 349.026 306.132 348.883 306.483C348.74 306.834 348.528 307.153 348.26 307.421C347.992 307.689 347.674 307.9 347.323 308.043C346.972 308.186 346.596 308.258 346.217 308.254H290.184C289.423 308.25 288.694 307.946 288.157 307.407C287.619 306.868 287.317 306.139 287.315 305.378V299.121C287.315 297.562 288.632 296.245 290.184 296.245H346.217C347.829 296.245 349.094 297.562 349.094 299.121Z" fill="#CFCFFF"/>
<path d="M309.903 341.813V367.691C309.903 369.592 309.148 371.416 307.804 372.76C306.459 374.104 304.636 374.859 302.735 374.859H224.474C223.533 374.859 222.601 374.674 221.731 374.314C220.862 373.953 220.071 373.426 219.406 372.76C218.74 372.094 218.212 371.304 217.852 370.434C217.492 369.565 217.306 368.633 217.306 367.691V341.813C217.306 337.852 220.514 334.645 224.474 334.645H302.735C306.696 334.645 309.903 337.852 309.903 341.813Z" fill="#7BD681"/>
<path d="M292.013 352.09V357.436C292.013 358.867 290.839 360.041 289.408 360.041H237.794C237.104 360.039 236.442 359.764 235.954 359.276C235.466 358.788 235.191 358.127 235.189 357.436V352.09C235.189 350.66 236.363 349.485 237.794 349.485H289.408C290.839 349.485 292.013 350.66 292.013 352.09Z" fill="#28892D"/>
<path d="M221.515 70.8291V119.236C221.509 120.423 221.034 121.561 220.194 122.4C219.353 123.239 218.215 123.712 217.028 123.716H168.568C167.983 123.713 167.405 123.594 166.866 123.368C166.326 123.141 165.837 122.81 165.426 122.394C165.015 121.978 164.689 121.485 164.469 120.943C164.249 120.401 164.137 119.821 164.141 119.236V70.8291C164.141 68.367 166.099 66.3491 168.568 66.3491H217.028C219.497 66.3491 221.515 68.367 221.515 70.8291Z" fill="#FF8132"/>
<path d="M292.269 70.8291V119.236C292.263 120.422 291.789 121.558 290.95 122.397C290.112 123.236 288.975 123.71 287.789 123.716H239.322C238.737 123.713 238.159 123.594 237.619 123.368C237.08 123.141 236.591 122.81 236.18 122.394C235.768 121.978 235.443 121.485 235.223 120.943C235.002 120.401 234.891 119.821 234.895 119.236V70.8291C234.895 68.367 236.853 66.3491 239.322 66.3491H287.789C290.251 66.3491 292.269 68.367 292.269 70.8291Z" fill="#FDC72E"/>
<path d="M363.023 70.8291V119.236C363.017 120.422 362.543 121.558 361.704 122.397C360.865 123.236 359.729 123.71 358.543 123.716H310.076C309.492 123.712 308.914 123.593 308.376 123.365C307.837 123.138 307.349 122.807 306.938 122.391C306.528 121.975 306.204 121.482 305.984 120.941C305.764 120.4 305.653 119.82 305.656 119.236V70.8291C305.656 68.367 307.614 66.3491 310.076 66.3491H358.543C361.005 66.3491 363.023 68.367 363.023 70.8291Z" fill="#70C1F9"/>
<path d="M292.269 141.131V189.53C292.263 190.717 291.789 191.853 290.95 192.692C290.112 193.531 288.975 194.004 287.789 194.01H239.322C238.737 194.007 238.159 193.889 237.619 193.662C237.08 193.435 236.591 193.105 236.18 192.688C235.768 192.272 235.443 191.779 235.223 191.237C235.002 190.695 234.891 190.115 234.895 189.53V141.124C234.895 138.662 236.853 136.644 239.322 136.644H287.789C290.251 136.644 292.269 138.669 292.269 141.131Z" fill="#7BD681"/>
<path d="M363.023 141.131V189.53C363.017 190.717 362.543 191.853 361.704 192.692C360.865 193.531 359.729 194.004 358.543 194.01H310.076C309.492 194.006 308.914 193.887 308.376 193.66C307.837 193.433 307.349 193.102 306.938 192.686C306.528 192.27 306.204 191.777 305.984 191.236C305.764 190.694 305.653 190.115 305.656 189.53V141.124C305.656 138.662 307.614 136.644 310.076 136.644H358.543C361.005 136.644 363.023 138.669 363.023 141.131Z" fill="#CFCFFF"/>
<path d="M292.269 211.418V259.817C292.265 261.005 291.792 262.143 290.953 262.984C290.114 263.824 288.977 264.299 287.789 264.305H239.322C238.737 264.302 238.157 264.183 237.618 263.956C237.078 263.729 236.588 263.397 236.177 262.98C235.766 262.563 235.441 262.069 235.221 261.527C235.001 260.984 234.89 260.403 234.895 259.817V211.418C234.895 208.956 236.853 206.931 239.322 206.931H287.789C290.251 206.931 292.269 208.956 292.269 211.418Z" fill="#FDC72E"/>
<path d="M363.023 211.418V259.817C363.019 261.005 362.546 262.143 361.707 262.984C360.868 263.824 359.731 264.299 358.543 264.305H310.076C309.491 264.301 308.913 264.182 308.374 263.954C307.835 263.726 307.346 263.394 306.936 262.978C306.525 262.561 306.201 262.067 305.981 261.525C305.762 260.983 305.652 260.402 305.656 259.817V211.418C305.656 208.956 307.614 206.931 310.076 206.931H358.543C361.005 206.931 363.023 208.956 363.023 211.418Z" fill="#FF8132"/>
<path d="M479.699 328.696L460.115 323.516C459.09 320.219 457.765 317.023 456.154 313.969L466.387 296.516C466.707 295.965 466.836 295.324 466.754 294.692C466.673 294.06 466.385 293.473 465.935 293.022L452.563 279.657C452.113 279.191 451.521 278.888 450.88 278.797C450.239 278.705 449.586 278.831 449.024 279.153L431.526 289.385L429.884 288.557C428.337 287.787 426.745 287.108 425.118 286.524C424.064 286.11 423.07 285.794 422.024 285.38L416.888 265.841C416.717 265.226 416.349 264.684 415.841 264.297C415.332 263.911 414.711 263.702 414.072 263.703H395.113C394.473 263.695 393.848 263.901 393.338 264.288C392.828 264.675 392.462 265.222 392.297 265.841L392.207 266.112L391.665 268.25L390.844 271.518L387.162 285.38C383.875 286.451 380.682 287.79 377.615 289.385L360.162 279.145C359.6 278.823 358.947 278.698 358.306 278.789C357.665 278.881 357.072 279.184 356.623 279.65L348.032 288.233L344.983 291.283L343.251 293.015C342.801 293.466 342.513 294.053 342.431 294.685C342.35 295.316 342.479 295.957 342.799 296.508L352.03 312.373L352.075 312.463L352.979 313.969C352.896 314.15 352.798 314.285 352.753 314.466C351.255 317.372 350.027 320.414 349.079 323.554L329.487 328.689C328.865 328.842 328.312 329.199 327.917 329.702C327.521 330.206 327.305 330.827 327.304 331.467V350.366C327.304 351.782 328.207 352.873 329.487 353.19L349.079 358.37C350.072 361.645 351.39 364.868 353.032 367.872L342.799 385.37C342.476 385.922 342.345 386.564 342.427 387.198C342.508 387.832 342.798 388.42 343.251 388.872L356.623 402.274C357.572 403.185 359.032 403.411 360.162 402.726L377.615 392.501C378.165 392.779 378.707 393.096 379.256 393.329C380.838 394.097 382.434 394.775 384.075 395.415C385.069 395.776 386.116 396.137 387.162 396.461L392.297 416.09C392.614 417.37 393.803 418.229 395.113 418.229H414.072C414.711 418.229 415.332 418.02 415.841 417.634C416.349 417.248 416.717 416.706 416.888 416.09L422.024 396.461C425.336 395.407 428.521 394.097 431.526 392.501L431.571 392.553L434.025 394.007L435.524 394.865L444.936 400.324L449.024 402.733C449.34 402.914 449.702 403.049 450.063 403.14C450.479 403.181 450.899 403.137 451.297 403.012C451.696 402.886 452.065 402.681 452.382 402.409C452.45 402.376 452.511 402.33 452.563 402.274L464.203 390.596L465.935 388.864C466.386 388.413 466.675 387.826 466.756 387.194C466.838 386.562 466.708 385.921 466.387 385.37L457.111 369.559L456.154 367.872C456.245 367.684 456.343 367.556 456.38 367.368C457.886 364.506 459.159 361.457 460.115 358.37L479.699 353.19C480.33 353.04 480.89 352.679 481.288 352.167C481.685 351.655 481.895 351.022 481.882 350.374V331.475C481.881 330.834 481.665 330.213 481.269 329.71C480.873 329.206 480.321 328.849 479.699 328.696Z" fill="#FF8132"/>
<path d="M404.57 376.591C424.26 376.591 440.222 360.629 440.222 340.939C440.222 321.249 424.26 305.288 404.57 305.288C384.88 305.288 368.919 321.249 368.919 340.939C368.919 360.629 384.88 376.591 404.57 376.591Z" fill="#4F5D99"/>
<path d="M404.57 368.911C420.019 368.911 432.542 356.388 432.542 340.939C432.542 325.491 420.019 312.968 404.57 312.968C389.122 312.968 376.599 325.491 376.599 340.939C376.599 356.388 389.122 368.911 404.57 368.911Z" fill="white"/>
</svg>
