<svg width="224" height="500" viewBox="0 0 224 500" fill="none" xmlns="http://www.w3.org/2000/svg">
<path d="M123.32 500L110.008 495.458C110.008 495.458 111.633 427.604 87.2786 422.729C71.0494 403.896 89.8827 -375.979 148.32 420.125C148.32 420.125 128.195 430.187 124.612 447.396C120.737 464.292 123.32 500 123.32 500Z" fill="white"/>
<path d="M123.32 500L110.008 495.458C110.008 495.458 111.633 427.604 87.2786 422.729C71.0494 403.896 89.8827 -375.979 148.32 420.125C148.32 420.125 128.195 430.187 124.612 447.396C120.737 464.292 123.32 500 123.32 500Z" fill="#DB7F45"/>
<path d="M130.466 434.417C130.466 434.417 247.029 357.792 219.758 198.375C193.466 82.4792 131.445 44.4792 124.633 29.875C117.174 19.4792 110.029 1.3125 110.029 1.3125L114.904 323.708C114.883 324.021 104.82 422.396 130.466 434.417Z" fill="white"/>
<path d="M130.466 434.417C130.466 434.417 247.029 357.792 219.758 198.375C193.466 82.4792 131.445 44.4792 124.633 29.875C117.174 19.4792 110.029 1.3125 110.029 1.3125L114.904 323.708C114.883 324.021 104.82 422.396 130.466 434.417Z" fill="#EC7830"/>
<path d="M103.195 438.625C103.195 438.625 -6.22145 363.958 0.278546 232.458C6.44521 100.958 83.7161 36.3542 98.6536 24.6667C108.404 14.2917 108.716 10.3958 109.362 0C116.174 14.6042 114.883 218.5 115.862 242.521C118.779 335.063 110.674 421.104 103.195 438.625Z" fill="white"/>
<path d="M103.195 438.625C103.195 438.625 -6.22145 363.958 0.278546 232.458C6.44521 100.958 83.7161 36.3542 98.6536 24.6667C108.404 14.2917 108.716 10.3958 109.362 0C116.174 14.6042 114.883 218.5 115.862 242.521C118.779 335.063 110.674 421.104 103.195 438.625Z" fill="#FF8132"/>
</svg>
