<svg width="464" height="512" viewBox="0 0 464 512" fill="none" xmlns="http://www.w3.org/2000/svg">
<path d="M428.541 270.471C423.937 264.502 418.941 258.531 413.602 252.583C417.202 248.414 420.69 244.148 424.06 239.791C458.076 195.685 467.734 155.674 451.254 127.131C434.775 98.587 395.3 86.946 340.09 94.352C334.13 95.1593 328.195 96.142 322.293 97.299C320.292 91.4284 318.114 85.6197 315.762 79.881C294.572 28.369 264.751 0 231.792 0C198.833 0 169.012 28.369 147.823 79.881C145.47 85.6197 143.292 91.4284 141.292 97.299C135.389 96.1426 129.455 95.1598 123.495 94.352C68.2907 86.947 28.8107 98.587 12.3307 127.131C-4.14934 155.675 5.50867 195.685 39.5247 239.791C42.8941 244.149 46.3814 248.415 49.9827 252.583C44.6427 258.531 39.6477 264.501 35.0437 270.471C1.02766 314.577 -8.63034 354.588 7.84966 383.131C21.0907 406.065 49.1707 418.086 88.3337 418.086C97.9127 418.086 108.163 417.366 119.013 415.91C126.001 414.972 133.163 413.736 140.459 412.231C142.754 419.115 145.207 425.76 147.823 432.12C169.012 483.631 198.833 512 231.792 512C264.751 512 294.572 483.631 315.761 432.119C318.377 425.759 320.83 419.114 323.125 412.23C330.421 413.735 337.583 414.972 344.571 415.909C355.424 417.365 365.668 418.085 375.25 418.085C414.409 418.085 442.495 406.063 455.734 383.13C472.215 354.587 462.557 314.577 428.541 270.471ZM370.938 122.126C398.36 122.126 417.742 129.087 425.273 142.13C435.127 159.198 426.026 188.116 400.304 221.469C397.802 224.705 395.228 227.885 392.584 231.006C377.545 216.698 360.616 202.698 342.198 189.356C339.654 167.139 335.829 145.909 330.827 126.17C345.511 123.46 358.994 122.126 370.938 122.126ZM271.617 327.992C258.132 335.777 244.823 342.761 231.801 348.971C218.253 342.503 204.964 335.505 191.967 327.992C177.082 319.398 162.837 310.302 149.398 300.854C148.232 285.931 147.653 270.968 147.66 256C147.66 238.602 148.423 221.901 149.827 205.998C162.066 197.602 174.628 189.687 187.485 182.27C202.525 173.587 217.342 165.913 231.791 159.186C246.241 165.913 261.058 173.587 276.098 182.27C288.954 189.687 301.516 197.602 313.756 205.998C315.16 221.901 315.923 238.602 315.923 256C315.923 271.531 315.313 286.504 314.185 300.854C300.747 310.302 286.502 319.398 271.617 327.992ZM309.609 340.004C307.599 352.774 305.161 364.87 302.361 376.206C291.234 372.973 279.641 369.061 267.684 364.452C274.056 361.071 280.368 357.577 286.617 353.973C294.383 349.487 302.049 344.829 309.609 340.004ZM195.898 364.451C183.939 369.061 172.349 372.969 161.221 376.202C158.422 364.868 155.984 352.773 153.974 340.004C161.533 344.829 169.199 349.487 176.966 353.972C183.214 357.577 189.525 361.071 195.898 364.451ZM118.026 276.944C108.526 269.074 99.6247 261.056 91.4117 252.963C99.7347 245.026 108.703 237.176 118.243 229.479C117.855 238.314 117.661 247.156 117.66 256C117.66 263.029 117.787 270.013 118.026 276.944ZM154.804 166.908C156.821 154.955 159.217 143.625 161.932 132.982C172.591 135.961 183.699 139.577 195.16 143.838C187.514 147.827 179.954 151.979 172.486 156.29C166.532 159.729 160.637 163.269 154.804 166.908ZM268.423 143.837C279.884 139.576 290.992 135.959 301.652 132.981C304.367 143.625 306.763 154.955 308.78 166.908C302.946 163.269 297.052 159.729 291.099 156.29C283.629 151.978 276.069 147.826 268.423 143.837ZM345.341 229.479C354.881 237.176 363.849 245.026 372.172 252.963C363.959 261.056 355.058 269.074 345.558 276.944C345.8 269.965 345.922 262.983 345.924 256C345.924 247.081 345.724 238.234 345.341 229.479ZM231.792 30C253.491 30 276.541 57.603 293.017 104.297C273.166 109.876 252.588 117.273 231.792 126.315C210.996 117.273 190.418 109.877 170.567 104.297C187.043 57.603 210.093 30 231.792 30ZM38.3107 142.131C45.8427 129.086 65.2157 122.127 92.6457 122.127C104.589 122.127 118.073 123.461 132.758 126.172C127.755 145.911 123.931 167.141 121.387 189.357C102.969 202.699 86.0397 216.699 71.0007 231.007C68.3563 227.886 65.7823 224.706 63.2807 221.47C37.5577 188.117 28.4567 159.199 38.3107 142.131ZM88.1647 388.135C60.7427 388.133 41.3607 381.174 33.8297 368.131C23.9757 351.063 33.0767 322.145 58.7987 288.792C62.5722 283.91 66.5054 279.154 70.5917 274.531C85.4607 289.149 102.338 303.488 120.79 317.18C123.219 340.446 127.033 362.701 132.132 383.357C115.943 386.568 101.148 388.136 88.1647 388.135ZM231.792 482C209.672 482 186.151 453.31 169.619 404.959C189.805 399.091 210.707 391.364 231.792 381.972C252.877 391.364 273.779 399.091 293.965 404.959C277.433 453.31 253.912 482 231.792 482ZM429.754 368.131C418.658 387.351 381.846 393.352 331.451 383.357C336.551 362.701 340.364 340.446 342.793 317.18C361.246 303.488 378.123 289.149 392.991 274.531C397.077 279.154 401.01 283.911 404.784 288.792C430.508 322.145 439.609 351.063 429.754 368.131Z" fill="#FF934F"/>
<path d="M231.792 302.35C257.39 302.35 278.142 281.598 278.142 256C278.142 230.402 257.39 209.65 231.792 209.65C206.193 209.65 185.442 230.402 185.442 256C185.442 281.598 206.193 302.35 231.792 302.35Z" fill="#FF934F"/>
</svg>
