<svg width="437" height="512" viewBox="0 0 437 512" fill="none" xmlns="http://www.w3.org/2000/svg">
<path d="M436.167 220.862C435.949 221.032 435.667 221.185 435.444 221.357C433.222 222.995 430.933 224.541 428.583 225.991C428.194 226.227 427.769 226.453 427.38 226.694C425.094 228.041 422.768 229.321 420.408 230.533L418.426 231.556C415.629 232.94 412.737 234.287 409.668 235.597L407.857 236.333C405.161 237.454 402.385 238.537 399.524 239.588L397.18 240.449C393.747 241.665 390.291 242.816 386.815 243.903L384.417 244.62C381.314 245.569 378.157 246.453 374.936 247.334C374.082 247.559 373.25 247.796 372.393 248.019C368.504 249.046 364.595 249.993 360.667 250.861C359.718 251.079 358.769 251.278 357.819 251.486C354.283 252.274 350.738 253.019 347.185 253.722L344.663 254.227C340.403 255.047 336.132 255.809 331.852 256.514C330.801 256.695 329.727 256.852 328.666 257.024C324.875 257.639 320.977 258.227 317.061 258.778L314.718 259.111C310.226 259.74 305.685 260.306 301.102 260.806L297.653 261.185C293.454 261.644 289.231 262.065 284.977 262.458L283.25 262.62C278.509 263.036 273.768 263.384 269.028 263.708L265.5 263.973C260.986 264.26 256.468 264.505 251.94 264.713L250.815 264.768C245.977 264.977 241.139 265.139 236.296 265.246L232.75 265.319C227.871 265.416 222.987 265.481 218.111 265.481C213.24 265.481 208.357 265.416 203.473 265.319L199.927 265.246C195.079 265.129 190.241 264.973 185.412 264.768L184.282 264.713C179.76 264.506 175.24 264.26 170.722 263.973L167.176 263.736C162.436 263.416 157.695 263.065 152.954 262.648L151.232 262.487C146.977 262.101 142.75 261.676 138.551 261.212L135.102 260.833C130.558 260.31 126.019 259.745 121.486 259.138L119.106 258.842C115.189 258.297 111.334 257.708 107.5 257.093C106.44 256.921 105.367 256.76 104.315 256.578C99.9775 255.855 95.7084 255.097 91.5046 254.291L88.9813 253.792C85.4276 253.088 81.8824 252.341 78.3467 251.552C77.3985 251.342 76.4492 251.143 75.4999 250.926C71.5773 250.036 67.6681 249.089 63.7736 248.083C62.9203 247.866 62.0836 247.63 61.2314 247.398C58.059 246.537 54.8982 245.635 51.7499 244.69L49.3523 243.967C45.8755 242.883 42.4196 241.733 38.9867 240.518L36.6483 239.653C33.8463 238.629 31.0664 237.545 28.3105 236.403L26.4996 235.662C23.5442 234.396 20.6236 233.05 17.741 231.625L15.7594 230.597C13.3298 229.348 11.0187 228.07 8.78696 226.759C8.40296 226.522 7.97274 226.297 7.58281 226.055C5.13896 224.55 2.84207 223.004 0.721778 221.421C0.504889 221.25 0.218074 221.097 0 220.926V322.37C0 346.121 82.963 379.259 218.074 379.259C353.185 379.259 436.148 346.121 436.148 322.37L436.167 220.862Z" fill="#FF934F"/>
<path d="M436.167 353.602C435.949 353.773 435.667 353.926 435.444 354.098C433.222 355.736 430.933 357.282 428.583 358.732C428.194 358.968 427.769 359.194 427.38 359.435C425.094 360.781 422.768 362.061 420.408 363.273L418.426 364.296C415.629 365.681 412.737 367.028 409.668 368.338L407.857 369.074C405.161 370.195 402.385 371.278 399.524 372.328L397.18 373.19C393.747 374.406 390.291 375.557 386.815 376.644L384.417 377.361C381.314 378.31 378.157 379.194 374.936 380.075C374.082 380.3 373.25 380.537 372.393 380.76C368.504 381.786 364.595 382.734 360.667 383.602C359.718 383.82 358.769 384.019 357.819 384.226C354.283 385.015 350.738 385.76 347.185 386.463L344.663 386.968C340.401 387.781 336.131 388.543 331.852 389.255C330.801 389.435 329.727 389.593 328.666 389.765C324.875 390.38 320.977 390.968 317.061 391.519L314.718 391.852C310.226 392.481 305.685 393.047 301.102 393.547L297.653 393.926C293.454 394.385 289.231 394.805 284.977 395.199L283.25 395.361C278.509 395.778 273.768 396.124 269.028 396.449L265.5 396.713C260.986 397 256.468 397.246 251.94 397.454L250.815 397.509C245.977 397.717 241.139 397.88 236.296 397.986L232.75 398.06C227.871 398.157 222.987 398.222 218.111 398.222C213.24 398.222 208.357 398.157 203.473 398.06L199.927 397.986C195.079 397.87 190.241 397.714 185.412 397.509L184.282 397.454C179.76 397.247 175.24 397 170.722 396.713L167.176 396.476C162.436 396.156 157.695 395.806 152.954 395.388L151.232 395.227C146.977 394.842 142.75 394.417 138.551 393.953L135.102 393.574C130.558 393.05 126.019 392.485 121.486 391.879L119.106 391.583C115.189 391.038 111.334 390.449 107.5 389.833C106.44 389.662 105.367 389.5 104.315 389.319C99.9775 388.596 95.7084 387.838 91.5046 387.032L88.9813 386.533C85.4262 385.835 81.881 385.089 78.3467 384.293C77.3985 384.083 76.4492 383.884 75.4999 383.667C71.5773 382.777 67.6681 381.829 63.7736 380.824C62.9203 380.607 62.0836 380.371 61.2314 380.139C58.059 379.278 54.8982 378.375 51.7499 377.431L49.3523 376.708C45.8734 375.63 42.4175 374.48 38.9867 373.259L36.6483 372.393C33.8463 371.369 31.0664 370.286 28.3105 369.144L26.4996 368.403C23.5442 367.137 20.6236 365.791 17.741 364.366L15.7594 363.337C13.3298 362.088 11.0187 360.811 8.78696 359.5C8.40296 359.263 7.97274 359.038 7.58281 358.796C5.13896 357.291 2.84207 355.745 0.721778 354.162C0.504889 353.991 0.218074 353.838 0 353.666V455.111C0 478.862 82.963 512 218.074 512C353.185 512 436.148 478.862 436.148 455.111L436.167 353.602ZM436.167 88.1209C435.949 88.2915 435.667 88.4444 435.444 88.6163C433.222 90.2545 430.933 91.8005 428.583 93.2504C428.194 93.4862 427.769 93.7126 427.38 93.9532C425.103 95.3019 422.777 96.567 420.408 97.7458L418.426 98.7686C415.629 100.153 412.737 101.5 409.668 102.805L407.857 103.546C405.161 104.666 402.385 105.751 399.524 106.801L397.18 107.662C393.747 108.878 390.291 110.029 386.815 111.116L384.417 111.833C381.314 112.782 378.157 113.662 374.936 114.547C374.082 114.772 373.25 115.009 372.393 115.227C368.504 116.256 364.595 117.205 360.667 118.074C359.718 118.292 358.769 118.491 357.819 118.699C354.283 119.487 350.738 120.232 347.185 120.935L344.663 121.44C340.403 122.26 336.132 123.021 331.852 123.721C330.801 123.902 329.727 124.064 328.666 124.235C324.875 124.851 320.977 125.439 317.061 125.989L314.718 126.323C310.226 126.952 305.685 127.518 301.102 128.018L297.653 128.397C293.454 128.851 289.231 129.276 284.977 129.665L283.25 129.828C278.509 130.245 273.768 130.596 269.028 130.92L265.5 131.231C260.986 131.518 256.468 131.763 251.94 131.972L250.815 132.026C245.977 132.235 241.139 132.397 236.296 132.504L232.75 132.577C227.871 132.674 222.987 132.74 218.111 132.74C213.24 132.74 208.357 132.674 203.473 132.577L199.927 132.504C195.079 132.388 190.241 132.231 185.412 132.026L184.282 131.972C179.76 131.765 175.24 131.518 170.722 131.231L167.176 130.994C162.436 130.674 157.695 130.323 152.954 129.906L151.232 129.745C146.977 129.359 142.75 128.934 138.551 128.471L135.102 128.091C130.558 127.568 126.019 127.003 121.486 126.396L119.106 126.1C115.189 125.555 111.334 124.966 107.5 124.351C106.44 124.179 105.367 124.018 104.315 123.836C99.9775 123.113 95.7084 122.355 91.5046 121.549L88.9813 121.05C85.4276 120.346 81.8824 119.599 78.3467 118.81C77.3985 118.6 76.4492 118.401 75.4999 118.184C71.5773 117.294 67.6681 116.347 63.7736 115.341C62.9203 115.124 62.0836 114.888 61.2314 114.656C58.059 113.796 54.8982 112.893 51.7499 111.948L49.3523 111.225C45.8755 110.141 42.4196 108.991 38.9867 107.776L36.6483 106.911C33.8463 105.887 31.0664 104.803 28.3105 103.661L26.4996 102.92C23.5442 101.654 20.6236 100.308 17.741 98.8835L15.7594 97.8548C13.3298 96.6056 11.0187 95.328 8.78696 94.0634C8.40296 93.8275 7.97274 93.6012 7.58281 93.3641C5.22929 91.9196 2.94046 90.3722 0.722963 88.7265C0.506074 88.5558 0.219259 88.4065 0.00118519 88.2358V189.63C0.00118519 213.333 82.9642 246.519 218.075 246.519C353.186 246.519 436.149 213.333 436.149 189.63L436.167 88.1209Z" fill="#FF934F"/>
<path d="M436.167 56.8889C436.167 25.472 338.532 0 218.093 0C97.6545 0 0.0189209 25.472 0.0189209 56.8889C0.0189209 88.3058 97.6533 113.778 218.093 113.778C338.533 113.778 436.167 88.3058 436.167 56.8889Z" fill="#FF934F"/>
</svg>
