<svg width="512" height="400" viewBox="0 0 512 400" fill="none" xmlns="http://www.w3.org/2000/svg">
<path d="M174.63 324.83H282.63V371H174.63V324.83Z" fill="#003481"/>
<path d="M174.63 324.83H194.472V371H174.63V324.83Z" fill="#002152"/>
<path d="M333.134 395C333.134 397.75 330.884 400 328.134 400H129.131C126.381 400 124.131 397.75 124.131 395V375C124.131 372.25 126.381 370 129.131 370H328.134C330.884 370 333.134 372.25 333.134 375V395Z" fill="#0052C2"/>
<path d="M143.973 395V375C143.973 372.25 146.223 370 148.973 370H129.131C126.381 370 124.131 372.25 124.131 375V395C124.131 397.75 126.381 400 129.131 400H148.973C146.223 400 143.973 397.75 143.973 395Z" fill="#003481"/>
<path d="M0 315.834C0 321.334 4.5 325.834 10 325.834H310.175V258.883H0V315.834Z" fill="#0052C2"/>
<path d="M19.842 315.834V258.883H0V315.834C0 321.334 4.5 325.834 10 325.834H29.842C24.342 325.834 19.842 321.334 19.842 315.834Z" fill="#003481"/>
<path d="M310.175 231.987C310.175 229.781 311.969 227.987 314.175 227.987H457.265V11.465C457.265 5.41902 452.319 0.473022 446.274 0.473022H10.992C4.946 0.473022 0 5.41902 0 11.465V259.883H310.175V231.987Z" fill="#003481"/>
<path d="M310.175 231.987C310.175 229.781 311.969 227.987 314.175 227.987H435.282V27.457C435.282 24.707 433.032 22.457 430.282 22.457H26.984C24.234 22.457 21.984 24.707 21.984 27.457V232.898C21.984 235.648 24.234 237.898 26.984 237.898H310.174L310.175 231.987Z" fill="#EEF6FF"/>
<path d="M228.63 307.121C236.313 307.121 242.541 300.893 242.541 293.21C242.541 285.527 236.313 279.299 228.63 279.299C220.947 279.299 214.719 285.527 214.719 293.21C214.719 300.893 220.947 307.121 228.63 307.121Z" fill="#002152"/>
<path d="M416.361 151.376C416.361 154.126 414.111 156.376 411.361 156.376H252.904C250.154 156.376 247.904 154.126 247.904 151.376V78.6581C247.904 75.9081 250.154 73.6581 252.904 73.6581H411.361C414.111 73.6581 416.361 75.9081 416.361 78.6581V151.376Z" fill="#FF9451"/>
<path d="M267.747 151.376V78.6581C267.747 75.9081 269.997 73.6581 272.747 73.6581H252.905C250.155 73.6581 247.905 75.9081 247.905 78.6581V151.376C247.905 154.126 250.155 156.376 252.905 156.376H272.747C269.997 156.376 267.747 154.126 267.747 151.376Z" fill="#FF9518"/>
<path d="M299.266 185.121H256.154C252.012 185.121 248.654 181.764 248.654 177.621C248.654 173.478 252.012 170.121 256.154 170.121H299.266C303.408 170.121 306.766 173.478 306.766 177.621C306.766 181.764 303.408 185.121 299.266 185.121ZM299.266 207.916H256.154C252.012 207.916 248.654 204.559 248.654 200.416C248.654 196.273 252.012 192.916 256.154 192.916H299.266C303.408 192.916 306.766 196.273 306.766 200.416C306.766 204.559 303.408 207.916 299.266 207.916ZM351.28 185.121H319.22C315.078 185.121 311.72 181.764 311.72 177.621C311.72 173.478 315.078 170.121 319.22 170.121H351.28C355.422 170.121 358.78 173.478 358.78 177.621C358.78 181.764 355.422 185.121 351.28 185.121ZM351.28 207.916H319.22C315.078 207.916 311.72 204.559 311.72 200.416C311.72 196.273 315.078 192.916 319.22 192.916H351.28C355.422 192.916 358.78 196.273 358.78 200.416C358.78 204.559 355.422 207.916 351.28 207.916ZM411.772 185.121H370.936C366.794 185.121 363.436 181.764 363.436 177.621C363.436 173.478 366.794 170.121 370.936 170.121H411.772C415.914 170.121 419.272 173.478 419.272 177.621C419.272 181.764 415.914 185.121 411.772 185.121ZM411.772 207.916H370.936C366.794 207.916 363.436 204.559 363.436 200.416C363.436 196.273 366.794 192.916 370.936 192.916H411.772C415.914 192.916 419.272 196.273 419.272 200.416C419.272 204.559 415.914 207.916 411.772 207.916Z" fill="#C3DDF4"/>
<path d="M359.365 56.084C359.365 58.834 357.115 61.084 354.365 61.084H343.366C340.616 61.084 338.366 58.834 338.366 56.084V45.085C338.366 42.335 340.616 40.085 343.366 40.085H354.365C357.115 40.085 359.365 42.335 359.365 45.085V56.084ZM387.363 56.084C387.363 58.834 385.113 61.084 382.363 61.084H371.364C368.614 61.084 366.364 58.834 366.364 56.084V45.085C366.364 42.335 368.614 40.085 371.364 40.085H382.363C385.113 40.085 387.363 42.335 387.363 45.085V56.084ZM415.361 56.084C415.361 58.834 413.111 61.084 410.361 61.084H399.362C396.612 61.084 394.362 58.834 394.362 56.084V45.085C394.362 42.335 396.612 40.085 399.362 40.085H410.361C413.111 40.085 415.361 42.335 415.361 45.085V56.084Z" fill="#EF8318"/>
<path d="M190.898 202.005H181.898C177.756 202.005 174.398 198.648 174.398 194.505C174.398 190.362 177.756 187.005 181.898 187.005H190.898C192.887 187.005 194.795 187.795 196.201 189.202C197.608 190.608 198.398 192.516 198.398 194.505C198.398 196.494 197.608 198.402 196.201 199.808C194.795 201.215 192.887 202.005 190.898 202.005ZM156.898 202.005H147.898C143.756 202.005 140.398 198.648 140.398 194.505C140.398 190.362 143.756 187.005 147.898 187.005H156.898C158.887 187.005 160.795 187.795 162.201 189.202C163.608 190.608 164.398 192.516 164.398 194.505C164.398 196.494 163.608 198.402 162.201 199.808C160.795 201.215 158.887 202.005 156.898 202.005ZM122.897 202.005H113.897C109.755 202.005 106.397 198.648 106.397 194.505C106.397 190.362 109.755 187.005 113.897 187.005H122.897C124.886 187.005 126.794 187.795 128.2 189.202C129.607 190.608 130.397 192.516 130.397 194.505C130.397 195.49 130.203 196.465 129.827 197.375C129.45 198.286 128.897 199.112 128.201 199.809C127.504 200.505 126.677 201.058 125.767 201.435C124.857 201.811 123.882 202.005 122.897 202.005ZM88.897 202.005H79.897C75.755 202.005 72.397 198.648 72.397 194.505C72.397 190.362 75.755 187.005 79.897 187.005H88.897C90.8861 187.005 92.7938 187.795 94.2003 189.202C95.6068 190.608 96.397 192.516 96.397 194.505C96.397 198.648 93.04 202.005 88.897 202.005ZM220.148 171.106C218.159 171.106 216.251 170.316 214.845 168.909C213.438 167.503 212.648 165.595 212.648 163.606V154.606C212.648 152.617 213.438 150.709 214.845 149.303C216.251 147.896 218.159 147.106 220.148 147.106C222.137 147.106 224.045 147.896 225.451 149.303C226.858 150.709 227.648 152.617 227.648 154.606V163.606C227.648 165.595 226.858 167.503 225.451 168.909C224.045 170.316 222.137 171.106 220.148 171.106ZM220.148 137.106C218.159 137.106 216.251 136.316 214.845 134.909C213.438 133.503 212.648 131.595 212.648 129.606V120.606C212.648 118.617 213.438 116.709 214.845 115.303C216.251 113.896 218.159 113.106 220.148 113.106C222.137 113.106 224.045 113.896 225.451 115.303C226.858 116.709 227.648 118.617 227.648 120.606V129.606C227.648 131.595 226.858 133.503 225.451 134.909C224.045 136.316 222.137 137.106 220.148 137.106ZM220.148 103.106C218.159 103.106 216.251 102.316 214.845 100.909C213.438 99.5028 212.648 97.5951 212.648 95.606V86.606C212.648 84.6169 213.438 82.7092 214.845 81.3027C216.251 79.8962 218.159 79.106 220.148 79.106C222.137 79.106 224.045 79.8962 225.451 81.3027C226.858 82.7092 227.648 84.6169 227.648 86.606V95.606C227.648 97.5951 226.858 99.5028 225.451 100.909C224.045 102.316 222.137 103.106 220.148 103.106ZM50.147 171.106C48.1579 171.106 46.2502 170.316 44.8437 168.909C43.4372 167.503 42.647 165.595 42.647 163.606V154.606C42.647 152.617 43.4372 150.709 44.8437 149.303C46.2502 147.896 48.1579 147.106 50.147 147.106C52.1361 147.106 54.0438 147.896 55.4503 149.303C56.8568 150.709 57.647 152.617 57.647 154.606V163.606C57.647 167.749 54.29 171.106 50.147 171.106ZM50.147 137.106C48.1579 137.106 46.2502 136.316 44.8437 134.909C43.4372 133.503 42.647 131.595 42.647 129.606V120.606C42.647 118.617 43.4372 116.709 44.8437 115.303C46.2502 113.896 48.1579 113.106 50.147 113.106C52.1361 113.106 54.0438 113.896 55.4503 115.303C56.8568 116.709 57.647 118.617 57.647 120.606V129.606C57.647 133.749 54.29 137.106 50.147 137.106ZM50.147 103.106C48.1579 103.106 46.2502 102.316 44.8437 100.909C43.4372 99.5028 42.647 97.5951 42.647 95.606V86.606C42.647 84.6169 43.4372 82.7092 44.8437 81.3027C46.2502 79.8962 48.1579 79.106 50.147 79.106C52.1361 79.106 54.0438 79.8962 55.4503 81.3027C56.8568 82.7092 57.647 84.6169 57.647 86.606V95.606C57.647 99.749 54.29 103.106 50.147 103.106ZM190.898 66.005H181.898C177.756 66.005 174.398 62.648 174.398 58.505C174.398 54.362 177.756 51.005 181.898 51.005H190.898C195.04 51.005 198.398 54.362 198.398 58.505C198.398 62.648 195.04 66.005 190.898 66.005ZM156.898 66.005H147.898C143.756 66.005 140.398 62.648 140.398 58.505C140.398 54.362 143.756 51.005 147.898 51.005H156.898C161.04 51.005 164.398 54.362 164.398 58.505C164.398 62.648 161.04 66.005 156.898 66.005ZM122.897 66.005H113.897C109.755 66.005 106.397 62.648 106.397 58.505C106.397 54.362 109.755 51.005 113.897 51.005H122.897C127.039 51.005 130.397 54.362 130.397 58.505C130.397 62.648 127.04 66.005 122.897 66.005ZM88.897 66.005H79.897C75.755 66.005 72.397 62.648 72.397 58.505C72.397 54.362 75.755 51.005 79.897 51.005H88.897C93.039 51.005 96.397 54.362 96.397 58.505C96.397 62.648 93.04 66.005 88.897 66.005Z" fill="#69CDFF"/>
<path d="M200.148 169.505C200.148 172.255 197.898 174.505 195.148 174.505H75.148C72.398 174.505 70.148 172.255 70.148 169.505V83.505C70.148 80.755 72.398 78.505 75.148 78.505H195.148C197.898 78.505 200.148 80.755 200.148 83.505V169.505Z" fill="#5DC1D8"/>
<path d="M89.99 169.505V83.505C89.99 80.755 92.24 78.505 94.99 78.505H75.147C72.397 78.505 70.147 80.755 70.147 83.505V169.505C70.147 172.255 72.397 174.505 75.147 174.505H94.99C92.24 174.505 89.99 172.255 89.99 169.505Z" fill="#28A5A5"/>
<path d="M234.145 66.009C234.145 68.759 231.895 71.009 229.145 71.009H208.145C205.395 71.009 203.145 68.759 203.145 66.009V45.009C203.145 42.259 205.395 40.009 208.145 40.009H229.145C231.895 40.009 234.145 42.259 234.145 45.009V66.009ZM68.145 68.009C68.145 70.759 65.895 73.009 63.145 73.009H42.145C39.395 73.009 37.145 70.759 37.145 68.009V47.009C37.145 44.259 39.395 42.009 42.145 42.009H63.145C65.895 42.009 68.145 44.259 68.145 47.009V68.009ZM234.145 205.883C234.145 208.633 231.895 210.883 229.145 210.883H208.145C205.395 210.883 203.145 208.633 203.145 205.883V184.883C203.145 182.133 205.395 179.883 208.145 179.883H229.145C231.895 179.883 234.145 182.133 234.145 184.883V205.883ZM68.145 205.883C68.145 208.633 65.895 210.883 63.145 210.883H42.145C39.395 210.883 37.145 208.633 37.145 205.883V184.883C37.145 182.133 39.395 179.883 42.145 179.883H63.145C65.895 179.883 68.145 182.133 68.145 184.883V205.883Z" fill="#52BBEF"/>
<path d="M214.167 66.009V45.009C214.167 42.259 216.417 40.009 219.167 40.009H208.145C205.395 40.009 203.145 42.259 203.145 45.009V66.009C203.145 68.759 205.395 71.009 208.145 71.009H219.167C216.417 71.009 214.167 68.759 214.167 66.009ZM48.167 68.009V47.009C48.167 44.259 50.417 42.009 53.167 42.009H42.145C39.395 42.009 37.145 44.259 37.145 47.009V68.009C37.145 70.759 39.395 73.009 42.145 73.009H53.167C50.417 73.009 48.167 70.759 48.167 68.009ZM214.167 205.883V184.883C214.167 182.133 216.417 179.883 219.167 179.883H208.145C205.395 179.883 203.145 182.133 203.145 184.883V205.883C203.145 208.633 205.395 210.883 208.145 210.883H219.167C216.417 210.883 214.167 208.633 214.167 205.883ZM48.167 205.883V184.883C48.167 182.133 50.417 179.883 53.167 179.883H42.145C39.395 179.883 37.145 182.133 37.145 184.883V205.883C37.145 208.633 39.395 210.883 42.145 210.883H53.167C50.417 210.883 48.167 208.633 48.167 205.883Z" fill="#1E99D6"/>
<path d="M435.458 311.773C435.303 311.351 435.315 311.111 435.337 311.033C435.338 311.033 435.399 311.027 435.456 311.027C435.57 311.027 435.769 311.05 436.07 311.161L478.174 326.626V231.988C478.174 229.238 475.924 226.988 473.174 226.988H314.174C311.424 226.988 309.174 229.238 309.174 231.988V346.788C309.174 349.538 311.424 351.788 314.174 351.788H450.154L435.458 311.773Z" fill="#5DC1D8"/>
<path d="M329.017 346.787V231.987C329.017 229.237 331.267 226.987 334.017 226.987H314.175C311.425 226.987 309.175 229.237 309.175 231.987V346.787C309.175 349.537 311.425 351.787 314.175 351.787H334.017C331.267 351.787 329.017 349.537 329.017 346.787Z" fill="#28A5A5"/>
<path d="M436.415 310.222C434.768 309.617 433.914 310.47 434.519 312.118L460.884 383.9C461.489 385.548 463 385.88 464.241 384.639L478.238 370.642C478.838 370.046 479.65 369.711 480.496 369.711C481.341 369.711 482.153 370.046 482.753 370.642L498.881 386.772C499.481 387.368 500.292 387.703 501.138 387.703C501.984 387.703 502.795 387.368 503.395 386.772L511.069 379.098C511.665 378.498 512 377.687 512 376.841C512 375.995 511.665 375.184 511.069 374.584L494.94 358.455C494.344 357.855 494.009 357.044 494.009 356.198C494.009 355.352 494.344 354.541 494.94 353.941L508.936 339.944C510.178 338.704 509.845 337.193 508.197 336.588L436.415 310.222Z" fill="#171717"/>
</svg>
