<svg width="512" height="510" viewBox="0 0 512 510" fill="none" xmlns="http://www.w3.org/2000/svg">
<path d="M512 45C512 20.147 491.853 0 467 0H45C20.147 0 0 20.147 0 45V135L10 145H502L512 135V45Z" fill="#0052C2"/>
<path d="M512 45V135L502 145H256V0H467C491.85 0 512 20.15 512 45Z" fill="#003481"/>
<path d="M436 60H346C337.716 60 331 66.716 331 75C331 83.284 337.716 90 346 90H436C444.284 90 451 83.284 451 75C451 66.716 444.284 60 436 60Z" fill="#0052C2"/>
<path d="M196 90C204.284 90 211 83.2843 211 75C211 66.7157 204.284 60 196 60C187.716 60 181 66.7157 181 75C181 83.2843 187.716 90 196 90Z" fill="#FF8132"/>
<path d="M136 90C144.284 90 151 83.2843 151 75C151 66.7157 144.284 60 136 60C127.716 60 121 66.7157 121 75C121 83.2843 127.716 90 136 90Z" fill="#FDBF00"/>
<path d="M76 90C84.2843 90 91 83.2843 91 75C91 66.7157 84.2843 60 76 60C67.7157 60 61 66.7157 61 75C61 83.2843 67.7157 90 76 90Z" fill="#37D742"/>
<path d="M0 135V465C0 489.813 20.187 510 45 510H467C491.813 510 512 489.813 512 465V135H0Z" fill="#E0F4FF"/>
<path d="M512 135V465C512 489.81 491.81 510 467 510H256V135H512Z" fill="#B8E0F5"/>
<path d="M306.909 196.213C299.295 192.95 290.476 196.477 287.213 204.091L197.213 414.091C193.949 421.705 197.477 430.524 205.091 433.787C212.708 437.051 221.525 433.521 224.787 425.909L314.787 215.909C318.051 208.294 314.523 199.476 306.909 196.213Z" fill="#FF8132"/>
<path d="M314.79 215.91L256 353.09V276.91L287.21 204.09C290.48 196.48 299.29 192.95 306.91 196.21C314.52 199.48 318.05 208.29 314.79 215.91Z" fill="#FF8132"/>
<path d="M175.37 363.287L115.012 315L175.37 266.713C181.84 261.538 182.888 252.099 177.713 245.63C172.537 239.161 163.096 238.113 156.63 243.288L81.63 303.288C74.131 309.285 74.126 320.712 81.63 326.714L156.63 386.714C163.099 391.89 172.54 390.84 177.713 384.372C182.888 377.901 181.84 368.462 175.37 363.287Z" fill="#FF8132"/>
<path d="M430.37 303.287L355.37 243.287C348.901 238.111 339.461 239.16 334.287 245.629C329.112 252.098 330.16 261.538 336.63 266.712L396.988 315L336.63 363.287C330.16 368.462 329.112 377.901 334.287 384.37C339.469 390.846 348.91 391.882 355.37 386.712L430.37 326.712C437.869 320.715 437.874 309.289 430.37 303.287Z" fill="#FF8132"/>
</svg>
